<svg xmlns="http://www.w3.org/2000/svg" width="20" height="20" viewBox="0 0 20 20" fill="none">
  <path fill="currentColor" fill-rule="evenodd" clip-rule="evenodd" d="M15.5711 15.9142C17.1435 14.4326 18.125 12.3309 18.125 10C18.125 5.51269 14.4873 1.875 10 1.875C5.51269 1.875 1.875 5.51269 1.875 10C1.875 12.3309 2.85654 14.4326 4.42886 15.9142C5.88343 17.2849 7.84361 18.125 10 18.125C12.1564 18.125 14.1166 17.2849 15.5711 15.9142ZM5.12094 14.8436C6.26635 13.4148 8.02634 12.5 10 12.5C11.9737 12.5 13.7337 13.4148 14.8791 14.8436C13.6336 16.0982 11.9075 16.875 10 16.875C8.0925 16.875 6.36644 16.0982 5.12094 14.8436ZM13.125 7.5C13.125 9.22589 11.7259 10.625 10 10.625C8.27411 10.625 6.875 9.22589 6.875 7.5C6.875 5.77411 8.27411 4.375 10 4.375C11.7259 4.375 13.125 5.77411 13.125 7.5Z" />
</svg>