<svg width="20" height="21" viewBox="0 0 20 21" fill="none" xmlns="http://www.w3.org/2000/svg">
<path d="M2 4.75C2 3.50736 3.00736 2.5 4.25 2.5H6.75C7.99264 2.5 9 3.50736 9 4.75V7.25C9 8.49264 7.99264 9.5 6.75 9.5H4.25C3.00736 9.5 2 8.49264 2 7.25V4.75Z" fill="#0F172A"/>
<path d="M2 13.75C2 12.5074 3.00736 11.5 4.25 11.5H6.75C7.99264 11.5 9 12.5074 9 13.75V16.25C9 17.4926 7.99264 18.5 6.75 18.5H4.25C3.00736 18.5 2 17.4926 2 16.25V13.75Z" fill="#0F172A"/>
<path d="M11 4.75C11 3.50736 12.0074 2.5 13.25 2.5H15.75C16.9926 2.5 18 3.50736 18 4.75V7.25C18 8.49264 16.9926 9.5 15.75 9.5H13.25C12.0074 9.5 11 8.49264 11 7.25V4.75Z" fill="#0F172A"/>
<path d="M15.25 12.25C15.25 11.8358 14.9142 11.5 14.5 11.5C14.0858 11.5 13.75 11.8358 13.75 12.25V14.25H11.75C11.3358 14.25 11 14.5858 11 15C11 15.4142 11.3358 15.75 11.75 15.75H13.75V17.75C13.75 18.1642 14.0858 18.5 14.5 18.5C14.9142 18.5 15.25 18.1642 15.25 17.75V15.75H17.25C17.6642 15.75 18 15.4142 18 15C18 14.5858 17.6642 14.25 17.25 14.25H15.25V12.25Z" fill="#0F172A"/>
</svg>
