<svg xmlns="http://www.w3.org/2000/svg" width="20" height="20" viewBox="0 0 20 20" fill="none">
  <path d="M10 9.5C11.6569 9.5 13 8.15685 13 6.5C13 4.84315 11.6569 3.5 10 3.5C8.34315 3.5 7 4.84315 7 6.5C7 8.15685 8.34315 9.5 10 9.5Z" fill="#334155"/>
  <path d="M6 8.5C6 9.60457 5.10457 10.5 4 10.5C2.89543 10.5 2 9.60457 2 8.5C2 7.39543 2.89543 6.5 4 6.5C5.10457 6.5 6 7.39543 6 8.5Z" fill="#334155"/>
  <path d="M1.49064 15.8257C1.32107 15.7271 1.19021 15.5718 1.13247 15.3843C1.04636 15.1048 1 14.8078 1 14.5C1 12.8431 2.34315 11.5 4 11.5C4.522 11.5 5.01287 11.6333 5.4404 11.8678C4.39329 12.8989 3.69414 14.2825 3.53478 15.8267C3.5118 16.0494 3.52139 16.2692 3.55996 16.4809C2.81061 16.4156 2.10861 16.1849 1.49064 15.8257Z" fill="#334155"/>
  <path d="M16.4405 16.4809C17.1897 16.4155 17.8915 16.1849 18.5094 15.8257C18.6789 15.7271 18.8098 15.5718 18.8675 15.3843C18.9536 15.1048 19 14.8078 19 14.5C19 12.8431 17.6569 11.5 16 11.5C15.4781 11.5 14.9873 11.6333 14.5599 11.8676C15.6071 12.8987 16.3063 14.2824 16.4656 15.8267C16.4886 16.0494 16.479 16.2692 16.4405 16.4809Z" fill="#334155"/>
  <path d="M18 8.5C18 9.60457 17.1046 10.5 16 10.5C14.8954 10.5 14 9.60457 14 8.5C14 7.39543 14.8954 6.5 16 6.5C17.1046 6.5 18 7.39543 18 8.5Z" fill="#334155"/>
  <path d="M5.30383 16.6909C5.10473 16.5106 4.99922 16.2478 5.02679 15.9807C5.28657 13.4633 7.41408 11.5 10.0001 11.5C12.5862 11.5 14.7137 13.4633 14.9735 15.9807C15.0011 16.2478 14.8956 16.5107 14.6965 16.6909C13.4545 17.8152 11.8073 18.5 10.0001 18.5C8.19298 18.5 6.54576 17.8152 5.30383 16.6909Z" fill="#334155"/>
</svg>